<mxfile host="app.diagrams.net" modified="2024-05-29T10:41:34.989Z" agent="Mozilla/5.0 (Windows NT 10.0; Win64; x64) AppleWebKit/537.36 (KHTML, like Gecko) Chrome/125.0.0.0 Safari/537.36" etag="doglxsWpbU9I-eeWveMu" version="24.4.9" type="device">
  <diagram id="cQUaR9dfDrzo7mjEV9v8" name="Strona-3">
    <mxGraphModel dx="1290" dy="557" grid="1" gridSize="10" guides="1" tooltips="1" connect="1" arrows="1" fold="1" page="1" pageScale="1" pageWidth="827" pageHeight="1169" math="0" shadow="0">
      <root>
        <mxCell id="0" />
        <mxCell id="1" parent="0" />
        <mxCell id="oo4ou-hroPzYH-o4y6v3-1" value="" style="ellipse;html=1;shape=startState;fillColor=#B5739D;strokeColor=#99004D;" vertex="1" parent="1">
          <mxGeometry x="399" y="30" width="30" height="30" as="geometry" />
        </mxCell>
        <mxCell id="XypOSCwQ_-rzXtEj4ooO-1" value="" style="edgeStyle=orthogonalEdgeStyle;html=1;verticalAlign=bottom;endArrow=open;endSize=8;strokeColor=#99004D;rounded=0;exitX=0.5;exitY=1;exitDx=0;exitDy=0;" edge="1" parent="1" source="oo4ou-hroPzYH-o4y6v3-1">
          <mxGeometry relative="1" as="geometry">
            <mxPoint x="414" y="110" as="targetPoint" />
            <mxPoint x="410" y="100" as="sourcePoint" />
          </mxGeometry>
        </mxCell>
        <mxCell id="W_M71k0jpCbWMns3tyqG-1" value="&lt;b&gt;brak punktów lojalnościowych na koncie&lt;/b&gt;" style="rounded=1;whiteSpace=wrap;html=1;arcSize=40;fontColor=#000000;fillColor=#E6D0DE;strokeColor=#B5739D;" vertex="1" parent="1">
          <mxGeometry x="354" y="110" width="120" height="40" as="geometry" />
        </mxCell>
        <mxCell id="W_M71k0jpCbWMns3tyqG-2" value="&lt;b&gt;dodanie punktów lojalnościowych do salda&lt;/b&gt;" style="rounded=1;whiteSpace=wrap;html=1;arcSize=40;fontColor=#000000;fillColor=#E6D0DE;strokeColor=#B5739D;" vertex="1" parent="1">
          <mxGeometry x="354" y="200" width="120" height="40" as="geometry" />
        </mxCell>
        <mxCell id="W_M71k0jpCbWMns3tyqG-3" value="" style="edgeStyle=orthogonalEdgeStyle;html=1;verticalAlign=bottom;endArrow=open;endSize=8;strokeColor=#99004D;rounded=0;exitX=0.5;exitY=1;exitDx=0;exitDy=0;entryX=0.5;entryY=0;entryDx=0;entryDy=0;" edge="1" parent="1" source="W_M71k0jpCbWMns3tyqG-1" target="W_M71k0jpCbWMns3tyqG-2">
          <mxGeometry relative="1" as="geometry">
            <mxPoint x="420" y="210" as="targetPoint" />
            <mxPoint x="420" y="160" as="sourcePoint" />
          </mxGeometry>
        </mxCell>
        <mxCell id="W_M71k0jpCbWMns3tyqG-4" value="złożenie zamówienia" style="text;html=1;align=center;verticalAlign=middle;resizable=0;points=[];autosize=1;strokeColor=none;fillColor=none;" vertex="1" parent="1">
          <mxGeometry x="284" y="160" width="130" height="30" as="geometry" />
        </mxCell>
        <mxCell id="W_M71k0jpCbWMns3tyqG-5" value="" style="edgeStyle=orthogonalEdgeStyle;html=1;verticalAlign=bottom;endArrow=open;endSize=8;strokeColor=#99004D;rounded=0;exitX=0.5;exitY=1;exitDx=0;exitDy=0;" edge="1" parent="1" source="W_M71k0jpCbWMns3tyqG-2">
          <mxGeometry relative="1" as="geometry">
            <mxPoint x="414" y="290" as="targetPoint" />
            <mxPoint x="420" y="280" as="sourcePoint" />
          </mxGeometry>
        </mxCell>
        <mxCell id="W_M71k0jpCbWMns3tyqG-6" value="wyświetlenie propozycji rabatów" style="text;html=1;align=center;verticalAlign=middle;resizable=0;points=[];autosize=1;strokeColor=none;fillColor=none;" vertex="1" parent="1">
          <mxGeometry x="460" y="400" width="190" height="30" as="geometry" />
        </mxCell>
        <mxCell id="4x_nr6JLCCV0VGsO8hAo-1" value="" style="rhombus;whiteSpace=wrap;html=1;fontColor=#000000;fillColor=#E6D0DE;strokeColor=#B5739D;" vertex="1" parent="1">
          <mxGeometry x="374" y="290" width="80" height="40" as="geometry" />
        </mxCell>
        <mxCell id="opBPwQ7Rpy8Jg0t-HNcl-1" value="" style="ellipse;html=1;shape=endState;fillColor=#B5739D;strokeColor=#99004D;" vertex="1" parent="1">
          <mxGeometry x="710" y="470" width="30" height="30" as="geometry" />
        </mxCell>
        <mxCell id="opBPwQ7Rpy8Jg0t-HNcl-2" value="" style="edgeStyle=orthogonalEdgeStyle;html=1;verticalAlign=bottom;endArrow=open;endSize=8;strokeColor=#99004D;rounded=0;exitX=1;exitY=0.5;exitDx=0;exitDy=0;entryX=0.5;entryY=0;entryDx=0;entryDy=0;" edge="1" parent="1" source="4x_nr6JLCCV0VGsO8hAo-1" target="opBPwQ7Rpy8Jg0t-HNcl-1">
          <mxGeometry relative="1" as="geometry">
            <mxPoint x="570" y="340" as="targetPoint" />
            <mxPoint x="570" y="290" as="sourcePoint" />
          </mxGeometry>
        </mxCell>
        <mxCell id="opBPwQ7Rpy8Jg0t-HNcl-3" value="złożenie kolejnego zamówienia == false&amp;nbsp;" style="text;html=1;align=center;verticalAlign=middle;resizable=0;points=[];autosize=1;strokeColor=none;fillColor=none;" vertex="1" parent="1">
          <mxGeometry x="460" y="280" width="240" height="30" as="geometry" />
        </mxCell>
        <mxCell id="opBPwQ7Rpy8Jg0t-HNcl-4" value="" style="edgeStyle=orthogonalEdgeStyle;html=1;verticalAlign=bottom;endArrow=open;endSize=8;strokeColor=#99004D;rounded=0;exitX=0.5;exitY=1;exitDx=0;exitDy=0;" edge="1" parent="1" source="4x_nr6JLCCV0VGsO8hAo-1">
          <mxGeometry relative="1" as="geometry">
            <mxPoint x="414" y="380" as="targetPoint" />
            <mxPoint x="410" y="390" as="sourcePoint" />
          </mxGeometry>
        </mxCell>
        <mxCell id="opBPwQ7Rpy8Jg0t-HNcl-5" value="złożenie kolejnego zamówienia == true&amp;nbsp;" style="text;html=1;align=center;verticalAlign=middle;resizable=0;points=[];autosize=1;strokeColor=none;fillColor=none;" vertex="1" parent="1">
          <mxGeometry x="179" y="330" width="230" height="30" as="geometry" />
        </mxCell>
        <mxCell id="oOB_1PJQh26hbk-oo1Fu-1" value="" style="shape=line;html=1;strokeWidth=6;strokeColor=#B5739D;fillColor=#B5739D;" vertex="1" parent="1">
          <mxGeometry x="314" y="380" width="200" height="10" as="geometry" />
        </mxCell>
        <mxCell id="X_KhYr--7znu0OMotplp-1" value="" style="edgeStyle=orthogonalEdgeStyle;html=1;verticalAlign=bottom;endArrow=open;endSize=8;strokeColor=#99004D;rounded=0;exitX=0.25;exitY=0.5;exitDx=0;exitDy=0;exitPerimeter=0;" edge="1" parent="1" source="oOB_1PJQh26hbk-oo1Fu-1">
          <mxGeometry relative="1" as="geometry">
            <mxPoint x="364" y="450" as="targetPoint" />
            <mxPoint x="350" y="430" as="sourcePoint" />
          </mxGeometry>
        </mxCell>
        <mxCell id="X_KhYr--7znu0OMotplp-2" value="" style="edgeStyle=orthogonalEdgeStyle;html=1;verticalAlign=bottom;endArrow=open;endSize=8;strokeColor=#99004D;rounded=0;exitX=0.75;exitY=0.5;exitDx=0;exitDy=0;exitPerimeter=0;" edge="1" parent="1" source="oOB_1PJQh26hbk-oo1Fu-1">
          <mxGeometry relative="1" as="geometry">
            <mxPoint x="464" y="450" as="targetPoint" />
            <mxPoint x="500" y="430" as="sourcePoint" />
          </mxGeometry>
        </mxCell>
        <mxCell id="X_KhYr--7znu0OMotplp-4" value="wyświetlenie ilości punktów" style="text;html=1;align=center;verticalAlign=middle;resizable=0;points=[];autosize=1;strokeColor=none;fillColor=none;" vertex="1" parent="1">
          <mxGeometry x="200" y="400" width="170" height="30" as="geometry" />
        </mxCell>
        <mxCell id="mmp8-FwiZif7m0Kd-akZ-1" value="zagospodarowanie punktów przez klienta" style="swimlane;fontStyle=1;align=center;verticalAlign=middle;childLayout=stackLayout;horizontal=1;startSize=30;horizontalStack=0;resizeParent=0;resizeLast=1;container=0;fontColor=#000000;collapsible=0;rounded=1;arcSize=30;strokeColor=#B5739D;fillColor=#E6D0DE;swimlaneFillColor=#ffffc0;dropTarget=0;" vertex="1" parent="1">
          <mxGeometry x="272" y="450" width="284" height="70" as="geometry" />
        </mxCell>
        <mxCell id="mmp8-FwiZif7m0Kd-akZ-2" value="wybór rabatu&lt;div&gt;wyświetlenie zaoszczędzonej kwoty&amp;nbsp;&lt;/div&gt;" style="text;html=1;strokeColor=none;fillColor=#E6D0DE;align=center;verticalAlign=middle;spacingLeft=4;spacingRight=4;whiteSpace=wrap;overflow=hidden;rotatable=0;fontColor=#000000;" vertex="1" parent="mmp8-FwiZif7m0Kd-akZ-1">
          <mxGeometry y="30" width="284" height="40" as="geometry" />
        </mxCell>
        <mxCell id="mmp8-FwiZif7m0Kd-akZ-3" value="" style="edgeStyle=orthogonalEdgeStyle;html=1;verticalAlign=bottom;endArrow=open;endSize=8;strokeColor=#99004D;rounded=0;exitX=0.5;exitY=1;exitDx=0;exitDy=0;" edge="1" parent="1" source="mmp8-FwiZif7m0Kd-akZ-2">
          <mxGeometry relative="1" as="geometry">
            <mxPoint x="414" y="580" as="targetPoint" />
            <mxPoint x="410" y="570" as="sourcePoint" />
          </mxGeometry>
        </mxCell>
        <mxCell id="mmp8-FwiZif7m0Kd-akZ-4" value="" style="shape=line;html=1;strokeWidth=6;strokeColor=#B5739D;fillColor=#B5739D;" vertex="1" parent="1">
          <mxGeometry x="314" y="580" width="200" height="10" as="geometry" />
        </mxCell>
        <mxCell id="mmp8-FwiZif7m0Kd-akZ-5" value="wyświetlenie ostatecznej ilości punktów" style="swimlane;fontStyle=1;align=center;verticalAlign=middle;childLayout=stackLayout;horizontal=1;startSize=30;horizontalStack=0;resizeParent=0;resizeLast=1;container=0;fontColor=#000000;collapsible=0;rounded=1;arcSize=30;strokeColor=#B5739D;fillColor=#E6D0DE;swimlaneFillColor=#ffffc0;dropTarget=0;" vertex="1" parent="1">
          <mxGeometry x="272" y="650" width="284" height="70" as="geometry" />
        </mxCell>
        <mxCell id="mmp8-FwiZif7m0Kd-akZ-6" value="wyświetlenie pozycji w rankingu najaktywniejszych&amp;nbsp;&lt;div&gt;klientów&lt;/div&gt;" style="text;html=1;strokeColor=none;fillColor=#E6D0DE;align=center;verticalAlign=middle;spacingLeft=4;spacingRight=4;whiteSpace=wrap;overflow=hidden;rotatable=0;fontColor=#000000;" vertex="1" parent="mmp8-FwiZif7m0Kd-akZ-5">
          <mxGeometry y="30" width="284" height="40" as="geometry" />
        </mxCell>
        <mxCell id="mmp8-FwiZif7m0Kd-akZ-7" value="" style="edgeStyle=orthogonalEdgeStyle;html=1;verticalAlign=bottom;endArrow=open;endSize=8;strokeColor=#99004D;rounded=0;exitX=0.75;exitY=0.5;exitDx=0;exitDy=0;exitPerimeter=0;" edge="1" parent="1" source="mmp8-FwiZif7m0Kd-akZ-4">
          <mxGeometry relative="1" as="geometry">
            <mxPoint x="464" y="650" as="targetPoint" />
            <mxPoint x="460" y="620" as="sourcePoint" />
          </mxGeometry>
        </mxCell>
        <mxCell id="mmp8-FwiZif7m0Kd-akZ-8" value="" style="edgeStyle=orthogonalEdgeStyle;html=1;verticalAlign=bottom;endArrow=open;endSize=8;strokeColor=#99004D;rounded=0;exitX=0.25;exitY=0.5;exitDx=0;exitDy=0;exitPerimeter=0;" edge="1" parent="1" source="mmp8-FwiZif7m0Kd-akZ-4">
          <mxGeometry relative="1" as="geometry">
            <mxPoint x="364" y="650" as="targetPoint" />
            <mxPoint x="330" y="610" as="sourcePoint" />
          </mxGeometry>
        </mxCell>
        <mxCell id="mmp8-FwiZif7m0Kd-akZ-9" value="dodanie punktów na podstawie&lt;div&gt;&amp;nbsp;aktualnie składanego zamówienia&lt;/div&gt;" style="text;html=1;align=center;verticalAlign=middle;resizable=0;points=[];autosize=1;strokeColor=none;fillColor=none;" vertex="1" parent="1">
          <mxGeometry x="144" y="600" width="210" height="40" as="geometry" />
        </mxCell>
        <mxCell id="mmp8-FwiZif7m0Kd-akZ-10" value="odjęcie punktów na podstawie&amp;nbsp;&lt;div&gt;wykorzystanych rabatów&lt;/div&gt;" style="text;html=1;align=center;verticalAlign=middle;resizable=0;points=[];autosize=1;strokeColor=none;fillColor=none;" vertex="1" parent="1">
          <mxGeometry x="474" y="600" width="190" height="40" as="geometry" />
        </mxCell>
        <mxCell id="mmp8-FwiZif7m0Kd-akZ-11" value="" style="edgeStyle=orthogonalEdgeStyle;html=1;verticalAlign=bottom;endArrow=open;endSize=8;strokeColor=#99004D;rounded=0;exitX=0.5;exitY=1;exitDx=0;exitDy=0;entryX=0.5;entryY=1;entryDx=0;entryDy=0;" edge="1" parent="1" source="mmp8-FwiZif7m0Kd-akZ-6" target="opBPwQ7Rpy8Jg0t-HNcl-1">
          <mxGeometry relative="1" as="geometry">
            <mxPoint x="390" y="840" as="targetPoint" />
            <mxPoint x="390" y="780" as="sourcePoint" />
            <Array as="points">
              <mxPoint x="414" y="740" />
              <mxPoint x="725" y="740" />
            </Array>
          </mxGeometry>
        </mxCell>
      </root>
    </mxGraphModel>
  </diagram>
</mxfile>
